<?xml version="1.0" encoding="UTF-8"?>
<svg xmlns="http://www.w3.org/2000/svg" xmlns:xlink="http://www.w3.org/1999/xlink" width="2000" height="2000" viewBox="0 0 2000 2000">
<defs>
<clipPath id="clip-0">
<path clip-rule="nonzero" d="M 2.925781 4.089844 L 1995.910156 4.089844 L 1995.910156 1997.078125 L 2.925781 1997.078125 Z M 2.925781 4.089844 "/>
</clipPath>
<linearGradient id="linear-pattern-0" gradientUnits="userSpaceOnUse" x1="-0.00427041" y1="0" x2="0.88705" y2="0" gradientTransform="matrix(1747.37, -2568.42, 2568.42, 1747.37, 228.146, 2134.26)">
<stop offset="0" stop-color="rgb(94.900513%, 95.292664%, 97.253418%)" stop-opacity="1"/>
<stop offset="0.0625" stop-color="rgb(95.014954%, 95.397949%, 97.311401%)" stop-opacity="1"/>
<stop offset="0.125" stop-color="rgb(95.257568%, 95.620728%, 97.431946%)" stop-opacity="1"/>
<stop offset="0.1875" stop-color="rgb(95.513916%, 95.855713%, 97.56012%)" stop-opacity="1"/>
<stop offset="0.25" stop-color="rgb(95.773315%, 96.092224%, 97.689819%)" stop-opacity="1"/>
<stop offset="0.3125" stop-color="rgb(96.032715%, 96.330261%, 97.819519%)" stop-opacity="1"/>
<stop offset="0.375" stop-color="rgb(96.292114%, 96.568298%, 97.949219%)" stop-opacity="1"/>
<stop offset="0.4375" stop-color="rgb(96.554565%, 96.807861%, 98.080444%)" stop-opacity="1"/>
<stop offset="0.5" stop-color="rgb(96.817017%, 97.04895%, 98.21167%)" stop-opacity="1"/>
<stop offset="0.5625" stop-color="rgb(97.079468%, 97.290039%, 98.342896%)" stop-opacity="1"/>
<stop offset="0.625" stop-color="rgb(97.343445%, 97.531128%, 98.475647%)" stop-opacity="1"/>
<stop offset="0.6875" stop-color="rgb(97.607422%, 97.773743%, 98.606873%)" stop-opacity="1"/>
<stop offset="0.75" stop-color="rgb(97.871399%, 98.016357%, 98.739624%)" stop-opacity="1"/>
<stop offset="0.8125" stop-color="rgb(98.136902%, 98.258972%, 98.87085%)" stop-opacity="1"/>
<stop offset="0.875" stop-color="rgb(98.402405%, 98.501587%, 99.003601%)" stop-opacity="1"/>
<stop offset="0.9375" stop-color="rgb(98.667908%, 98.745728%, 99.136353%)" stop-opacity="1"/>
<stop offset="1" stop-color="rgb(98.933411%, 98.989868%, 99.269104%)" stop-opacity="1"/>
</linearGradient>
</defs>
<g clip-path="url(#clip-0)">
<path fill-rule="nonzero" fill="url(#linear-pattern-0)" d="M -923.960938 1366.496094 L 1365.324219 2923.960938 L 2922.792969 634.675781 L 633.507812 -922.792969 Z M -923.960938 1366.496094 "/>
</g>
<path fill-rule="evenodd" fill="rgb(100%, 89.0625%, 56.054688%)" fill-opacity="1" d="M 999.414062 365 L 1274.628906 523.890625 L 1549.851562 682.789062 L 1549.851562 1318.378906 L 1274.628906 1477.28125 L 999.414062 1636.171875 L 724.199219 1477.28125 L 448.980469 1318.378906 L 448.980469 682.789062 L 724.199219 523.890625 L 999.414062 365 "/>
<path fill-rule="evenodd" fill="rgb(98.826599%, 72.851562%, 1.177979%)" fill-opacity="1" d="M 999.414062 365 L 1274.628906 523.890625 L 1445.671875 622.640625 C 1309.5 788.421875 1128.851562 661.410156 1128.851562 661.410156 C 1001.570312 809.609375 730.160156 678.738281 730.160156 678.738281 C 581.664062 761.949219 448.980469 682.789062 448.980469 682.789062 L 724.199219 523.890625 L 999.414062 365 "/>
<path fill-rule="evenodd" fill="rgb(96.875%, 51.367188%, 11.767578%)" fill-opacity="1" d="M 999.414062 365 L 1159.648438 457.511719 C 1119.960938 507.511719 1017.328125 490.960938 1017.328125 490.960938 C 994.796875 510.601562 962.4375 499.050781 962.4375 499.050781 C 875.765625 568.378906 738.355469 515.71875 738.355469 515.71875 L 999.414062 365 "/>
<path fill-rule="evenodd" fill="rgb(96.875%, 59.179688%, 12.939453%)" fill-opacity="1" d="M 962.4375 499.050781 C 875.765625 568.378906 738.355469 515.71875 738.355469 515.71875 L 724.199219 523.890625 L 700.554688 537.539062 L 726.210938 547.378906 C 752.941406 557.640625 786.65625 564.46875 814.886719 567.261719 C 868.785156 572.589844 924.257812 565.429688 969.808594 535.550781 C 988.730469 538.148438 1008.691406 535.191406 1025.441406 526.25 C 1080.441406 532.210938 1150.96875 522.988281 1186.210938 478.589844 L 1189.339844 474.648438 L 1159.648438 457.511719 C 1119.960938 507.511719 1017.328125 490.960938 1017.328125 490.960938 C 994.796875 510.601562 962.4375 499.050781 962.4375 499.050781 "/>
<path fill-rule="evenodd" fill="rgb(100%, 79.6875%, 18.821716%)" fill-opacity="1" d="M 730.160156 678.738281 C 581.664062 761.949219 448.980469 682.789062 448.980469 682.789062 C 448.980469 682.789062 541.214844 771.191406 739.980469 739.988281 C 739.980469 739.988281 956.082031 849.78125 1117.289062 746.351562 C 1117.289062 746.351562 1296.988281 865.378906 1405.621094 737.101562 C 1405.621094 737.101562 1496.46875 767.148438 1549.851562 682.789062 L 1445.671875 622.640625 C 1309.5 788.421875 1128.851562 661.410156 1128.851562 661.410156 C 1001.570312 809.609375 730.160156 678.738281 730.160156 678.738281 "/>
<path fill-rule="evenodd" fill="rgb(13.330078%, 65.429688%, 94.139099%)" fill-opacity="1" d="M 1549.851562 1159.480469 L 448.980469 1159.480469 L 448.980469 1318.378906 L 724.199219 1477.28125 L 999.414062 1636.171875 L 1274.628906 1477.28125 L 1549.851562 1318.378906 L 1549.851562 1159.480469 "/>
<path fill-rule="evenodd" fill="rgb(59.959412%, 100%, 100%)" fill-opacity="1" d="M 834.75 1195.878906 L 537.757812 1216.679688 L 854.394531 1227.660156 L 604.78125 1257.710938 L 889.0625 1277.359375 L 688.011719 1298.371094 L 916.800781 1312.601562 L 756.746094 1341.488281 L 935.328125 1345.398438 L 861.949219 1372.238281 L 966.511719 1370.648438 L 925.886719 1395.648438 L 1072.949219 1395.648438 L 1032.320312 1370.648438 L 1136.878906 1372.238281 L 1063.5 1345.398438 L 1242.078125 1341.488281 L 1082.03125 1312.601562 L 1310.820312 1298.371094 L 1109.769531 1277.359375 L 1394.050781 1257.710938 L 1144.441406 1227.660156 L 1461.070312 1216.679688 L 1164.078125 1195.878906 L 1543.121094 1159.480469 L 455.707031 1159.480469 L 834.75 1195.878906 "/>
<path fill-rule="evenodd" fill="rgb(0%, 6.665039%, 14.109802%)" fill-opacity="1" d="M 668.902344 1118.769531 C 668.902344 1118.769531 649.5625 949.058594 653.679688 905.449219 C 653.679688 905.449219 632.902344 926.429688 633.3125 968.601562 C 633.3125 968.601562 630.125 962.628906 630.125 958.421875 C 630.125 958.421875 622.308594 980.019531 626.21875 999.761719 C 626.21875 999.761719 623.851562 997.710938 622.101562 993.898438 C 622.101562 993.898438 620.042969 1012.421875 622.925781 1023.519531 C 622.925781 1023.519531 583.015625 935.480469 642.261719 879.941406 C 642.261719 879.941406 609.140625 892.480469 601.53125 943.710938 C 601.53125 943.710938 599.886719 935.480469 602.046875 928.898438 C 602.046875 928.898438 591.039062 944.21875 591.554688 958.828125 C 591.554688 958.828125 588.980469 947.308594 590.628906 941.238281 C 590.628906 941.238281 579.105469 953.679688 576.847656 968.910156 C 576.847656 968.910156 575.917969 958.421875 577.875 954.199219 C 577.875 954.199219 561.3125 965.820312 561.3125 990.921875 C 561.3125 990.921875 553.289062 940.109375 587.230469 909.25 C 587.230469 909.25 620.351562 879.011719 638.453125 874.691406 C 638.453125 874.691406 624.824219 874.328125 614.4375 883.070312 C 614.4375 883.070312 618.191406 875.921875 621.894531 874.179688 C 621.894531 874.179688 592.117188 880.660156 581.214844 901.429688 C 581.214844 901.429688 582.65625 890.941406 588.929688 887.03125 C 588.929688 887.03125 569.488281 894.640625 561.570312 910.691406 C 561.570312 910.691406 563.625 901.738281 567.84375 897.628906 C 567.84375 897.628906 545.214844 911.410156 537.191406 925.5 C 537.191406 925.5 553.648438 846.300781 631.613281 860.5 C 631.613281 860.5 623.847656 851.910156 610.992188 852.171875 C 610.992188 852.171875 621.019531 849.230469 626.316406 852.828125 C 626.316406 852.828125 618.808594 844.550781 604.769531 849.488281 C 604.769531 849.488281 588.3125 850.929688 579.363281 860.550781 C 579.363281 860.550781 583.015625 853.609375 587.078125 851.191406 C 587.078125 851.191406 569.59375 854.121094 559.71875 872.21875 C 559.71875 872.21875 564.089844 850.308594 589.496094 837.660156 C 589.496094 837.660156 600.910156 833.339844 611.917969 835.761719 C 611.917969 835.761719 606.3125 832.570312 601.839844 832.421875 C 601.839844 832.421875 622.71875 826.5 645.964844 847.28125 C 645.964844 847.28125 643.90625 835.039062 632.386719 828.148438 C 632.386719 828.148438 636.910156 828.96875 638.558594 830.71875 C 638.558594 830.71875 635.730469 823.160156 624.105469 818.21875 C 624.105469 818.21875 626.574219 817.039062 628.785156 818.578125 C 628.785156 818.578125 620.867188 806.960938 607.082031 811.28125 C 607.082031 811.28125 597.3125 814.058594 595.101562 819.761719 C 595.101562 819.761719 598.804688 801.871094 623.179688 802.789062 C 623.179688 802.789062 622.050781 801.25 620.507812 800.738281 C 620.507812 800.738281 638.351562 798.679688 645.964844 816.171875 C 645.964844 816.171875 647.816406 813.03125 647.355469 811.789062 C 647.355469 811.789062 655.429688 821.460938 654.398438 834.011719 C 654.398438 834.011719 661.1875 786.898438 702.742188 799.859375 C 702.742188 799.859375 688.753906 799.25 684.945312 802.949219 C 684.945312 802.949219 689.269531 802.128906 693.226562 802.898438 C 693.226562 802.898438 680.933594 805.058594 676.617188 814.210938 C 676.617188 814.210938 680.113281 812.921875 682.632812 812.921875 C 682.632812 812.921875 669.15625 820.738281 666.277344 837.300781 C 666.277344 837.300781 689.421875 812 711.226562 823.011719 C 711.226562 823.011719 718.835938 826.398438 721.304688 832.160156 C 721.304688 832.160156 713.746094 827.070312 700.890625 831.03125 C 700.890625 831.03125 705.75 831.929688 708.0625 833.058594 C 708.0625 833.058594 696.570312 833.058594 692.867188 837.070312 C 692.867188 837.070312 699.269531 836.578125 702.355469 838.070312 C 702.355469 838.070312 681.9375 838.078125 670.519531 851.140625 C 670.519531 851.140625 710.320312 837.921875 737.722656 879.339844 C 737.722656 879.339844 731.109375 877.558594 731.515625 878.289062 C 731.515625 878.289062 750.027344 904.929688 739.949219 947.308594 C 739.949219 947.308594 739.742188 912.75 721.640625 897.320312 C 721.640625 897.320312 723.59375 903.078125 722.875 907.398438 C 722.875 907.398438 707.652344 859.570312 673.707031 864.511719 C 673.707031 864.511719 714.027344 875.828125 719.789062 927.660156 C 719.789062 927.660156 724.109375 965.308594 719.378906 981.96875 C 719.378906 981.96875 718.863281 960.480469 716.910156 954.308594 C 716.910156 954.308594 715.367188 958.011719 714.335938 961.921875 C 714.335938 961.921875 714.851562 942.171875 705.386719 931.570312 L 705.695312 937.949219 C 705.695312 937.949219 699.21875 912.960938 690.988281 904.210938 L 695.359375 905.601562 C 695.359375 905.601562 684.355469 884.210938 668.308594 877.011719 C 668.308594 877.011719 691.964844 910.738281 690.9375 945.300781 L 692.480469 942.730469 C 692.480469 942.730469 695.667969 977.03125 688.46875 999.871094 C 688.46875 999.871094 690.320312 980.738281 686.515625 970.039062 L 686.105469 981.871094 C 686.105469 981.871094 684.457031 968.808594 679.929688 959.449219 L 679.777344 965.160156 C 679.777344 965.160156 676.742188 943.558594 670.46875 932.449219 L 674.636719 935.941406 C 674.636719 935.941406 673.757812 920.511719 666.046875 914.339844 C 664.738281 958.289062 681.148438 1094.230469 710.992188 1117.28125 C 743.496094 1142.371094 753.78125 1146.078125 753.78125 1146.078125 L 681.371094 1142.78125 L 668.902344 1118.769531 "/>
<path fill-rule="evenodd" fill="rgb(0%, 6.665039%, 14.109802%)" fill-opacity="1" d="M 1432.539062 1101.308594 C 1432.539062 1101.308594 1445.039062 991.589844 1442.378906 963.390625 C 1442.378906 963.390625 1455.808594 976.960938 1455.539062 1004.21875 C 1455.539062 1004.21875 1457.609375 1000.371094 1457.609375 997.640625 C 1457.609375 997.640625 1462.660156 1011.601562 1460.128906 1024.371094 C 1460.128906 1024.371094 1461.660156 1023.039062 1462.789062 1020.578125 C 1462.789062 1020.578125 1464.128906 1032.550781 1462.261719 1039.730469 C 1462.261719 1039.730469 1488.058594 982.808594 1449.761719 946.898438 C 1449.761719 946.898438 1471.171875 955.011719 1476.089844 988.128906 C 1476.089844 988.128906 1477.160156 982.808594 1475.761719 978.558594 C 1475.761719 978.558594 1482.878906 988.460938 1482.539062 997.910156 C 1482.539062 997.910156 1484.210938 990.460938 1483.140625 986.539062 C 1483.140625 986.539062 1490.589844 994.578125 1492.050781 1004.421875 C 1492.050781 1004.421875 1492.648438 997.640625 1491.390625 994.910156 C 1491.390625 994.910156 1502.101562 1002.429688 1502.101562 1018.648438 C 1502.101562 1018.648438 1507.28125 985.800781 1485.339844 965.851562 C 1485.339844 965.851562 1463.921875 946.300781 1452.21875 943.511719 C 1452.21875 943.511719 1461.03125 943.28125 1467.75 948.929688 C 1467.75 948.929688 1465.320312 944.308594 1462.929688 943.179688 C 1462.929688 943.179688 1482.179688 947.371094 1489.230469 960.800781 C 1489.230469 960.800781 1488.289062 954.019531 1484.238281 951.488281 C 1484.238281 951.488281 1496.808594 956.410156 1501.929688 966.78125 C 1501.929688 966.78125 1500.601562 961 1497.871094 958.339844 C 1497.871094 958.339844 1512.5 967.25 1517.691406 976.359375 C 1517.691406 976.359375 1507.050781 925.160156 1456.640625 934.339844 C 1456.640625 934.339844 1461.660156 928.78125 1469.980469 928.949219 C 1469.980469 928.949219 1463.488281 927.050781 1460.070312 929.378906 C 1460.070312 929.378906 1464.921875 924.03125 1474 927.21875 C 1474 927.21875 1484.640625 928.148438 1490.421875 934.371094 C 1490.421875 934.371094 1488.058594 929.878906 1485.441406 928.320312 C 1485.441406 928.320312 1496.738281 930.210938 1503.128906 941.910156 C 1503.128906 941.910156 1500.300781 927.75 1483.878906 919.570312 C 1483.878906 919.570312 1476.488281 916.78125 1469.378906 918.339844 C 1469.378906 918.339844 1473 916.28125 1475.890625 916.179688 C 1475.890625 916.179688 1462.398438 912.359375 1447.371094 925.789062 C 1447.371094 925.789062 1448.699219 917.878906 1456.148438 913.421875 C 1456.148438 913.421875 1453.21875 913.949219 1452.148438 915.078125 C 1452.148438 915.078125 1453.980469 910.199219 1461.5 907 C 1461.5 907 1459.898438 906.238281 1458.46875 907.238281 C 1458.46875 907.238281 1463.589844 899.71875 1472.5 902.511719 C 1472.5 902.511719 1478.820312 904.308594 1480.25 908 C 1480.25 908 1477.859375 896.429688 1462.101562 897.03125 C 1462.101562 897.03125 1462.828125 896.03125 1463.820312 895.699219 C 1463.820312 895.699219 1452.289062 894.371094 1447.371094 905.671875 C 1447.371094 905.671875 1446.171875 903.648438 1446.46875 902.851562 C 1446.46875 902.851562 1441.25 909.101562 1441.910156 917.210938 C 1441.910156 917.210938 1437.519531 886.761719 1410.660156 895.128906 C 1410.660156 895.128906 1419.699219 894.730469 1422.160156 897.128906 C 1422.160156 897.128906 1419.371094 896.601562 1416.808594 897.101562 C 1416.808594 897.101562 1424.761719 898.488281 1427.550781 904.410156 C 1427.550781 904.410156 1425.289062 903.578125 1423.660156 903.578125 C 1423.660156 903.578125 1432.371094 908.628906 1434.230469 919.339844 C 1434.230469 919.339844 1419.269531 902.980469 1405.171875 910.101562 C 1405.171875 910.101562 1400.25 912.289062 1398.660156 916.019531 C 1398.660156 916.019531 1403.539062 912.71875 1411.859375 915.28125 C 1411.859375 915.28125 1408.710938 915.859375 1407.21875 916.601562 C 1407.21875 916.601562 1414.648438 916.601562 1417.039062 919.191406 C 1417.039062 919.191406 1412.898438 918.871094 1410.910156 919.839844 C 1410.910156 919.839844 1424.109375 919.839844 1431.488281 928.28125 C 1431.488281 928.28125 1405.761719 919.738281 1388.039062 946.511719 C 1388.039062 946.511719 1392.320312 945.359375 1392.058594 945.839844 C 1392.058594 945.839844 1380.089844 963.058594 1386.601562 990.460938 C 1386.601562 990.460938 1386.738281 968.121094 1398.441406 958.140625 C 1398.441406 958.140625 1397.179688 961.859375 1397.640625 964.660156 C 1397.640625 964.660156 1407.488281 933.738281 1429.429688 936.929688 C 1429.429688 936.929688 1403.359375 944.238281 1399.640625 977.761719 C 1399.640625 977.761719 1396.839844 1002.101562 1399.910156 1012.871094 C 1399.910156 1012.871094 1400.238281 998.96875 1401.5 994.980469 C 1401.5 994.980469 1402.5 997.371094 1403.160156 999.898438 C 1403.160156 999.898438 1402.828125 987.128906 1408.949219 980.289062 L 1408.75 984.410156 C 1408.75 984.410156 1412.941406 968.25 1418.261719 962.601562 L 1415.429688 963.5 C 1415.429688 963.5 1422.550781 949.660156 1432.921875 945.011719 C 1432.921875 945.011719 1417.628906 966.820312 1418.289062 989.160156 L 1417.289062 987.5 C 1417.289062 987.5 1415.230469 1009.679688 1419.890625 1024.441406 C 1419.890625 1024.441406 1418.691406 1012.070312 1421.148438 1005.160156 L 1421.410156 1012.800781 C 1421.410156 1012.800781 1422.480469 1004.359375 1425.410156 998.308594 L 1425.511719 1002 C 1425.511719 1002 1427.46875 988.03125 1431.519531 980.851562 L 1428.828125 983.109375 C 1428.828125 983.109375 1429.398438 973.140625 1434.378906 969.148438 C 1435.230469 997.558594 1424.621094 1085.449219 1405.320312 1100.351562 C 1384.308594 1116.570312 1377.660156 1118.96875 1377.660156 1118.96875 L 1424.480469 1116.839844 L 1432.539062 1101.308594 "/>
<path fill-rule="evenodd" fill="rgb(100%, 39.988708%, 19.993591%)" fill-opacity="1" d="M 891.769531 854.53125 C 925.195312 854.53125 956.019531 865.671875 980.742188 884.429688 L 927.023438 887.46875 L 988.746094 890.949219 C 991.332031 893.210938 993.832031 895.570312 996.253906 898 L 952.589844 900.46875 L 1001.191406 903.210938 C 1018.570312 922.480469 1030.941406 946.351562 1036.238281 972.78125 L 935.542969 978.46875 L 1038.070312 984.261719 C 1038.761719 990.039062 1039.109375 995.921875 1039.109375 1001.878906 C 1039.109375 1013.269531 1037.820312 1024.359375 1035.371094 1035.011719 L 967.46875 1038.851562 L 1033.421875 1042.578125 C 1015.75 1104.148438 959.027344 1149.21875 891.769531 1149.21875 C 838.855469 1149.21875 792.464844 1121.320312 766.484375 1079.429688 L 871.785156 1073.480469 L 759.648438 1067.148438 C 755.773438 1059.320312 752.570312 1051.101562 750.125 1042.570312 L 808.402344 1039.269531 L 748.382812 1035.878906 C 745.800781 1024.960938 744.429688 1013.578125 744.429688 1001.878906 C 744.429688 976.121094 751.046875 951.898438 762.664062 930.839844 L 835.058594 926.75 L 767.359375 922.921875 C 774.773438 911.261719 783.785156 900.71875 794.078125 891.589844 L 856.832031 888.039062 L 802.117188 884.949219 C 826.953125 865.878906 858.035156 854.53125 891.769531 854.53125 "/>
<path fill-rule="evenodd" fill="rgb(0%, 6.665039%, 14.109802%)" fill-opacity="1" d="M 773.703125 1130.191406 C 773.703125 1130.191406 786.203125 1020.46875 783.546875 992.28125 C 783.546875 992.28125 796.980469 1005.839844 796.710938 1033.109375 C 796.710938 1033.109375 798.773438 1029.25 798.773438 1026.519531 C 798.773438 1026.519531 803.828125 1040.480469 801.300781 1053.25 C 801.300781 1053.25 802.832031 1051.921875 803.960938 1049.460938 C 803.960938 1049.460938 805.289062 1061.429688 803.429688 1068.609375 C 803.429688 1068.609375 829.230469 1011.691406 790.925781 975.78125 C 790.925781 975.78125 812.339844 983.898438 817.261719 1017.011719 C 817.261719 1017.011719 818.324219 1011.691406 816.929688 1007.441406 C 816.929688 1007.441406 824.042969 1017.339844 823.710938 1026.789062 C 823.710938 1026.789062 825.371094 1019.339844 824.308594 1015.421875 C 824.308594 1015.421875 831.757812 1023.460938 833.21875 1033.300781 C 833.21875 1033.300781 833.820312 1026.519531 832.554688 1023.800781 C 832.554688 1023.800781 843.261719 1031.308594 843.261719 1047.539062 C 843.261719 1047.539062 848.449219 1014.679688 826.503906 994.730469 C 826.503906 994.730469 805.089844 975.179688 793.390625 972.390625 C 793.390625 972.390625 802.199219 972.160156 808.917969 977.808594 C 808.917969 977.808594 806.488281 973.191406 804.09375 972.058594 C 804.09375 972.058594 823.347656 976.25 830.394531 989.679688 C 830.394531 989.679688 829.464844 982.898438 825.40625 980.371094 C 825.40625 980.371094 837.976562 985.289062 843.097656 995.671875 C 843.097656 995.671875 841.765625 989.878906 839.039062 987.21875 C 839.039062 987.21875 853.667969 996.128906 858.855469 1005.238281 C 858.855469 1005.238281 848.214844 954.039062 797.808594 963.210938 C 797.808594 963.210938 802.832031 957.660156 811.144531 957.828125 C 811.144531 957.828125 804.660156 955.929688 801.234375 958.261719 C 801.234375 958.261719 806.089844 952.910156 815.167969 956.101562 C 815.167969 956.101562 825.804688 957.03125 831.59375 963.25 C 831.59375 963.25 829.230469 958.761719 826.605469 957.199219 C 826.605469 957.199219 837.910156 959.089844 844.292969 970.789062 C 844.292969 970.789062 841.46875 956.628906 825.039062 948.449219 C 825.039062 948.449219 817.660156 945.660156 810.546875 947.21875 C 810.546875 947.21875 814.167969 945.160156 817.0625 945.058594 C 817.0625 945.058594 803.5625 941.238281 788.535156 954.671875 C 788.535156 954.671875 789.863281 946.761719 797.3125 942.300781 C 797.3125 942.300781 794.386719 942.828125 793.320312 943.960938 C 793.320312 943.960938 795.152344 939.078125 802.664062 935.878906 C 802.664062 935.878906 801.070312 935.121094 799.640625 936.121094 C 799.640625 936.121094 804.757812 928.601562 813.671875 931.398438 C 813.671875 931.398438 819.988281 933.191406 821.417969 936.878906 C 821.417969 936.878906 819.019531 925.308594 803.261719 925.910156 C 803.261719 925.910156 803.992188 924.910156 804.992188 924.578125 C 804.992188 924.578125 793.453125 923.25 788.535156 934.558594 C 788.535156 934.558594 787.335938 932.53125 787.636719 931.730469 C 787.636719 931.730469 782.414062 937.980469 783.078125 946.089844 C 783.078125 946.089844 778.691406 915.640625 751.824219 924.011719 C 751.824219 924.011719 760.871094 923.609375 763.328125 926.011719 C 763.328125 926.011719 760.535156 925.480469 757.976562 925.980469 C 757.976562 925.980469 765.921875 927.371094 768.714844 933.289062 C 768.714844 933.289062 766.457031 932.460938 764.828125 932.460938 C 764.828125 932.460938 773.535156 937.511719 775.398438 948.21875 C 775.398438 948.21875 760.4375 931.859375 746.339844 938.980469 C 746.339844 938.980469 741.417969 941.171875 739.824219 944.898438 C 739.824219 944.898438 744.710938 941.601562 753.023438 944.160156 C 753.023438 944.160156 749.882812 944.75 748.386719 945.480469 C 748.386719 945.480469 755.816406 945.480469 758.210938 948.070312 C 758.210938 948.070312 754.070312 947.761719 752.074219 948.71875 C 752.074219 948.71875 765.273438 948.71875 772.65625 957.160156 C 772.65625 957.160156 746.925781 948.621094 729.210938 975.390625 C 729.210938 975.390625 733.484375 974.238281 733.222656 974.71875 C 733.222656 974.71875 721.253906 991.941406 727.773438 1019.339844 C 727.773438 1019.339844 727.902344 997 739.609375 987.019531 C 739.609375 987.019531 738.34375 990.75 738.8125 993.539062 C 738.8125 993.539062 748.652344 962.621094 770.597656 965.808594 C 770.597656 965.808594 744.527344 973.121094 740.804688 1006.640625 C 740.804688 1006.640625 738.011719 1030.980469 741.070312 1041.75 C 741.070312 1041.75 741.402344 1027.851562 742.667969 1023.859375 C 742.667969 1023.859375 743.664062 1026.261719 744.332031 1028.78125 C 744.332031 1028.78125 743.996094 1016.019531 750.113281 1009.171875 L 749.914062 1013.289062 C 749.914062 1013.289062 754.105469 997.128906 759.425781 991.480469 L 756.597656 992.378906 C 756.597656 992.378906 763.714844 978.539062 774.085938 973.890625 C 774.085938 973.890625 758.792969 995.699219 759.457031 1018.039062 L 758.460938 1016.378906 C 758.460938 1016.378906 756.398438 1038.558594 761.054688 1053.320312 C 761.054688 1053.320312 759.855469 1040.949219 762.316406 1034.039062 L 762.585938 1041.679688 C 762.585938 1041.679688 763.644531 1033.238281 766.574219 1027.191406 L 766.671875 1030.878906 C 766.671875 1030.878906 768.632812 1016.910156 772.691406 1009.730469 L 769.996094 1011.988281 C 769.996094 1011.988281 770.5625 1002.019531 775.550781 998.03125 C 776.398438 1026.441406 765.785156 1114.328125 746.492188 1129.230469 C 725.476562 1145.449219 718.828125 1147.851562 718.828125 1147.851562 L 765.640625 1145.71875 L 773.703125 1130.191406 "/>
<path fill-rule="evenodd" fill="rgb(0%, 6.665039%, 14.109802%)" fill-opacity="1" d="M 903.464844 1136.929688 C 756.511719 1031.410156 575.613281 1159.480469 575.613281 1159.480469 C 841.789062 1159.480469 1215.441406 1159.480469 1481.621094 1159.480469 C 1410.410156 980.101562 1015.339844 964.171875 903.464844 1136.929688 "/>
<path fill-rule="evenodd" fill="rgb(0%, 6.665039%, 14.109802%)" fill-opacity="1" d="M 1196.839844 896.140625 L 1256.550781 941.261719 L 1256.550781 930.230469 L 1278.628906 930.230469 L 1278.628906 957.949219 L 1325.699219 993.519531 L 1266.671875 993.519531 L 1266.671875 1070.878906 L 1127.011719 1070.878906 L 1127.011719 993.519531 L 1067.988281 993.519531 L 1132.421875 944.828125 L 1196.839844 896.140625 "/>
</svg>
